<svg width="26" height="26" viewBox="0 0 26 26" fill="none" xmlns="http://www.w3.org/2000/svg">
<path d="M22.6232 19.6858C22.6077 20.0455 22.5119 20.4117 22.3267 20.7641C22.1414 21.1165 21.907 21.4467 21.6035 21.754C21.0908 22.2725 20.5346 22.639 19.9144 22.8626C19.3043 23.0866 18.6493 23.1886 17.9499 23.1586C16.9309 23.1148 15.8522 22.8283 14.7242 22.2894C13.5963 21.7505 12.4757 21.0418 11.3723 20.1637C10.2594 19.2751 9.21033 18.2992 8.21547 17.2255C7.23103 16.1423 6.34864 15.0134 5.56831 13.8389C4.79796 12.6647 4.18747 11.4975 3.75639 10.3479C3.32573 9.18838 3.13271 8.08908 3.17732 7.05004C3.20649 6.37067 3.35426 5.72641 3.61978 5.13726C3.88573 4.53812 4.2894 3.99493 4.84036 3.51813C5.50679 2.91616 6.21945 2.63648 6.95877 2.66822C7.23851 2.68023 7.51568 2.75219 7.7603 2.8828C8.01491 3.01384 8.23698 3.20354 8.40566 3.47102L10.5833 6.83753C10.7524 7.09503 10.8724 7.33039 10.9529 7.55405C11.0338 7.76772 11.0747 7.97967 11.0666 8.16949C11.0563 8.40927 10.976 8.64605 10.8263 8.86983C10.6866 9.09404 10.4864 9.32567 10.2364 9.55516L9.44317 10.3118C9.32855 10.417 9.27302 10.5447 9.26616 10.7046C9.26273 10.7845 9.26971 10.8549 9.28626 10.9357C9.31281 11.0169 9.3402 11.0781 9.35761 11.1389C9.52329 11.4763 9.81456 11.9192 10.2318 12.4576C10.6591 12.9965 11.116 13.5466 11.6127 14.0984C12.1295 14.6511 12.628 15.1629 13.1382 15.6352C13.6389 16.0971 14.0556 16.4153 14.3876 16.6097C14.4367 16.6318 14.4953 16.6644 14.564 16.6974C14.6426 16.7308 14.7221 16.7442 14.812 16.7481C14.9819 16.7553 15.1143 16.701 15.2289 16.5958L16.0204 15.8791C16.2809 15.64 16.5288 15.4605 16.7638 15.3505C16.9996 15.2205 17.2324 15.1604 17.4821 15.1711C17.6719 15.1793 17.87 15.2278 18.086 15.3272C18.3019 15.4265 18.5261 15.5663 18.7686 15.7469L21.9748 18.2367C22.2268 18.4277 22.3976 18.6452 22.4968 18.8997C22.586 19.1537 22.6352 19.4061 22.6232 19.6858Z" stroke="#232323" stroke-width="1.5" stroke-miterlimit="10"/>
<path d="M19.5566 10.2156C19.5823 9.61613 19.1522 8.67682 18.4851 7.89748C17.8752 7.18066 17.0492 6.6047 16.21 6.56866" stroke="#232323" stroke-width="1.5" stroke-linecap="round" stroke-linejoin="round"/>
<path d="M23.0534 10.3657C23.2194 6.49929 20.2265 3.23791 16.3601 3.0719" stroke="#232323" stroke-width="1.5" stroke-linecap="round" stroke-linejoin="round"/>
</svg>
